<?xml version="1.0" encoding="utf-8"?>
<!-- Generator: Adobe Illustrator 24.0.2, SVG Export Plug-In . SVG Version: 6.00 Build 0)  -->
<svg version="1.1" id="レイヤー_1" xmlns="http://www.w3.org/2000/svg" xmlns:xlink="http://www.w3.org/1999/xlink" x="0px"
	 y="0px" width="140px" height="44px" viewBox="0 0 140 44" style="enable-background:new 0 0 140 44;" xml:space="preserve">
<style type="text/css">
	.st0{fill:#FFFFFF;}
	.st1{fill:#FFFFFF;stroke:#FFFFFF;stroke-width:0.8601;stroke-miterlimit:10;}
	.st2{fill:#00428E;}
	.st3{fill:#FFFFFE;}
	.st4{fill:#E6002D;}
</style>
<g>
	<g>
		<g>
			<g>
				<path class="st0" d="M54.7,6.2c-0.1,0.3-0.2,0.6-0.5,0.8c-0.2,0.3-0.6,0.5-1.1,0.7S52,8,51.2,8c-0.4,0-0.9,0-1.3-0.1
					c-0.4-0.1-0.8-0.2-1.1-0.4c-0.3-0.2-0.6-0.4-0.8-0.7c0-0.5-0.1-0.8-0.1-1.3V4.9H50v0.3c0,0.2,0,0.4,0.1,0.5
					c0,0.2,0.1,0.3,0.2,0.4c0.1,0.1,0.2,0.2,0.4,0.3c0.2,0.1,0.4,0.1,0.7,0.1s0.5,0,0.7-0.1s0.3-0.2,0.4-0.3
					c0.1-0.1,0.1-0.3,0.1-0.4c0-0.2,0-0.3,0-0.4V0h2.3v5.3C54.8,5.6,54.8,5.9,54.7,6.2z"/>
				<path class="st0" d="M62.1,0L66,7.8h-2.4L62.8,6h-3.9l-0.8,1.7h-2.3l4-7.7C59.7,0,62.1,0,62.1,0z M62.2,4.8L60.9,2l0,0l-1.4,2.8
					H62.2z"/>
				<path class="st0" d="M71.6,0c0.7,0,1.2,0.1,1.7,0.2s0.8,0.3,1.1,0.6C74.7,1,74.9,1.3,75,1.6s0.2,0.6,0.2,0.9S75.1,3.1,75,3.4
					S74.7,4,74.4,4.2c-0.3,0.2-0.7,0.4-1.1,0.6c-0.5,0.1-1,0.2-1.7,0.2h-2.4v2.8h-2.3V0H71.6z M71,3.7c0.3,0,0.5,0,0.8,0
					c0.2,0,0.5-0.1,0.6-0.2c0.2-0.1,0.3-0.2,0.4-0.4C72.9,2.9,73,2.7,73,2.5s-0.1-0.4-0.2-0.6s-0.3-0.3-0.4-0.4
					c-0.2-0.1-0.4-0.1-0.6-0.2c-0.2,0-0.5,0-0.8,0h-1.8v2.3H71V3.7z"/>
				<path class="st0" d="M80.8,0l3.9,7.7h-2.4L81.5,6h-3.9l-0.8,1.7h-2.3l4-7.7C78.4,0,80.8,0,80.8,0z M80.9,4.8L79.6,2l0,0
					l-1.4,2.8H80.9z"/>
				<path class="st0" d="M87.9,0l4.4,5.2l0,0V0h2.2v7.7h-2.3l-4.3-5.2l0,0v5.2h-2.2V0H87.9z"/>
			</g>
		</g>
		<g>
			<g>
				<path class="st0" d="M50.5,16.8c0.1,0.2,0.3,0.3,0.5,0.4s0.5,0.2,0.7,0.3c0.3,0,0.6,0.1,0.9,0.1c0.2,0,0.4,0,0.7,0
					c0.2,0,0.5-0.1,0.7-0.1c0.2-0.1,0.4-0.2,0.5-0.3c0.1-0.1,0.2-0.3,0.2-0.5s-0.1-0.4-0.3-0.5S54,16,53.7,15.9s-0.6-0.2-1-0.2
					c-0.4-0.1-0.8-0.1-1.1-0.2c-0.4-0.1-0.8-0.2-1.1-0.3c-0.4-0.1-0.7-0.2-1-0.4s-0.5-0.4-0.7-0.6c-0.2-0.2-0.3-0.6-0.3-0.9
					c0-0.4,0.1-0.7,0.3-1s0.5-0.5,0.9-0.7s0.8-0.3,1.3-0.4c0.5-0.1,0.9-0.1,1.4-0.1s1.1,0,1.6,0.1s1,0.2,1.3,0.4
					c0.4,0.2,0.7,0.5,0.9,0.8s0.3,0.7,0.3,1.1h-2.2c0-0.2-0.1-0.4-0.2-0.6c-0.1-0.2-0.3-0.3-0.4-0.4c-0.2-0.1-0.4-0.2-0.6-0.2
					c-0.2,0-0.5-0.1-0.8-0.1c-0.2,0-0.4,0-0.6,0c-0.2,0-0.4,0.1-0.5,0.1c-0.2,0.1-0.3,0.2-0.4,0.3c-0.1,0.1-0.1,0.2-0.1,0.4
					c0,0.1,0,0.3,0.1,0.4c0.1,0.1,0.2,0.2,0.5,0.3c0.2,0.1,0.6,0.2,1,0.2c0.4,0.1,0.9,0.2,1.6,0.3c0.2,0,0.5,0.1,0.8,0.2
					c0.3,0.1,0.7,0.2,1,0.4s0.6,0.4,0.9,0.7c0.3,0.3,0.4,0.6,0.4,1.1c0,0.4-0.1,0.7-0.3,1s-0.5,0.6-0.8,0.8
					c-0.4,0.2-0.8,0.4-1.4,0.5c-0.5,0.1-1.2,0.2-1.9,0.2c-0.6,0-1.1,0-1.7-0.2c-0.5-0.1-1-0.3-1.4-0.5s-0.7-0.5-1-0.9
					C48.1,17,48,16.6,48,16.1h2.2C50.3,16.4,50.3,16.6,50.5,16.8z"/>
				<path class="st0" d="M63.4,10.9l3.9,7.7H65L64.2,17h-3.9l-0.8,1.7h-2.3l4-7.7C61.1,10.9,63.4,10.9,63.4,10.9z M63.6,15.7
					l-1.3-2.8l0,0l-1.4,2.8H63.6z"/>
				<path class="st0" d="M70.5,10.9v7.7h-2.3v-7.7C68.2,10.9,70.5,10.9,70.5,10.9z"/>
				<path class="st0" d="M74.9,10.9v6.3H80v1.4h-7.4v-7.7C72.6,10.9,74.9,10.9,74.9,10.9z"/>
				<path class="st0" d="M83.5,10.9v7.7h-2.3v-7.7C81.2,10.9,83.5,10.9,83.5,10.9z"/>
				<path class="st0" d="M87.9,10.9l4.4,5.2l0,0v-5.2h2.1v7.7h-2.3l-4.3-5.2l0,0v5.2h-2.2v-7.7C85.6,10.9,87.9,10.9,87.9,10.9z"/>
				<path class="st0" d="M102.6,18.6c-0.5,0.2-1,0.2-1.5,0.2c-0.8,0-1.5-0.1-2.2-0.3c-0.6-0.2-1.2-0.5-1.6-0.8
					c-0.4-0.4-0.8-0.8-1-1.3c-0.2-0.5-0.3-1-0.3-1.6s0.1-1.1,0.3-1.6c0.2-0.5,0.6-0.9,1-1.3c0.4-0.4,1-0.7,1.6-0.9s1.4-0.3,2.2-0.3
					c0.5,0,1.1,0.1,1.6,0.2c0.5,0.1,1,0.3,1.4,0.5s0.8,0.5,1,0.9c0.3,0.3,0.4,0.7,0.5,1.2h-2.2c-0.1-0.4-0.4-0.8-0.8-1
					s-0.9-0.3-1.4-0.3s-1,0.1-1.3,0.2c-0.4,0.1-0.7,0.3-0.9,0.6c-0.2,0.2-0.4,0.5-0.5,0.9c-0.1,0.3-0.1,0.7-0.1,1s0.1,0.6,0.1,0.9
					c0.1,0.3,0.3,0.6,0.5,0.8c0.2,0.2,0.5,0.4,0.9,0.6c0.4,0.1,0.8,0.2,1.3,0.2c0.8,0,1.3-0.1,1.8-0.4c0.4-0.3,0.7-0.7,0.7-1.2h-2.3
					v-1.3h4.4v4.2h-1.5l-0.2-0.9C103.6,18.2,103.1,18.5,102.6,18.6z"/>
			</g>
		</g>
		<g>
			<g>
				<path class="st0" d="M56.1,21.9v1.4H51v1.8h4.4v1.3H51v3.2h-2.3v-7.7C48.7,21.9,56.1,21.9,56.1,21.9z"/>
				<path class="st0" d="M65.2,21.9v1.4h-5.5V25h5.1v1.3h-5.1v1.9h5.6v1.4h-7.9v-7.7C57.4,21.9,65.2,21.9,65.2,21.9z"/>
				<path class="st0" d="M71.4,21.9c0.7,0,1.3,0.1,1.9,0.2c0.6,0.2,1.1,0.4,1.5,0.7c0.4,0.3,0.8,0.7,1,1.2s0.4,1,0.4,1.7
					c0,0.6-0.1,1.1-0.3,1.6c-0.2,0.5-0.5,0.9-0.9,1.2c-0.4,0.3-0.9,0.6-1.5,0.8c-0.6,0.2-1.3,0.3-2.1,0.3h-4.5v-7.7L71.4,21.9
					L71.4,21.9z M71.2,28.2c0.3,0,0.6,0,1-0.1c0.3-0.1,0.6-0.2,0.8-0.4c0.2-0.2,0.4-0.4,0.6-0.7c0.1-0.3,0.2-0.7,0.2-1.1
					s-0.1-0.7-0.2-1.1c-0.1-0.3-0.3-0.6-0.5-0.8c-0.2-0.2-0.5-0.4-0.9-0.5s-0.9-0.2-1.4-0.2h-1.6v4.9L71.2,28.2L71.2,28.2z"/>
				<path class="st0" d="M85.6,21.9v1.4H80V25h5.1v1.3H80v1.9h5.6v1.4h-7.9v-7.7C77.7,21.9,85.6,21.9,85.6,21.9z"/>
				<path class="st0" d="M92.9,21.9c0.5,0,0.9,0.1,1.3,0.2s0.7,0.3,1,0.5s0.5,0.4,0.6,0.7c0.2,0.2,0.2,0.5,0.2,0.8
					c0,0.5-0.1,0.9-0.4,1.2c-0.3,0.3-0.7,0.6-1.3,0.8l0,0c0.3,0.1,0.5,0.1,0.7,0.3c0.2,0.1,0.3,0.3,0.5,0.4c0.1,0.2,0.2,0.3,0.3,0.5
					c0.1,0.2,0.1,0.4,0.1,0.6c0,0.1,0,0.3,0,0.4c0,0.2,0,0.3,0.1,0.5s0.1,0.3,0.1,0.5c0.1,0.2,0.1,0.3,0.2,0.4H94
					c-0.1-0.2-0.2-0.5-0.2-0.9c0-0.3-0.1-0.7-0.1-1c-0.1-0.4-0.3-0.7-0.5-0.9c-0.3-0.2-0.7-0.3-1.2-0.3h-2.3v3h-2.3v-7.7L92.9,21.9
					L92.9,21.9z M92.1,25.4c0.5,0,0.9-0.1,1.2-0.3c0.3-0.2,0.4-0.5,0.4-0.9s-0.1-0.6-0.4-0.8c-0.3-0.2-0.7-0.3-1.2-0.3h-2.5v2.2
					L92.1,25.4L92.1,25.4z"/>
				<path class="st0" d="M103,21.9l3.9,7.7h-2.4l-0.8-1.7h-3.9L99,29.6h-2.3l4-7.7C100.7,21.9,103,21.9,103,21.9z M103.2,26.6
					l-1.3-2.8l0,0l-1.4,2.8H103.2z"/>
				<path class="st0" d="M105.7,23.3v-1.4h8.6v1.4h-3.1v6.3h-2.3v-6.3H105.7z"/>
				<path class="st0" d="M117.7,21.9v7.7h-2.3v-7.7C115.4,21.9,117.7,21.9,117.7,21.9z"/>
				<path class="st0" d="M119.7,24.2c0.2-0.5,0.6-0.9,1-1.3s1-0.7,1.6-0.9c0.6-0.2,1.4-0.3,2.2-0.3c0.8,0,1.5,0.1,2.2,0.3
					c0.6,0.2,1.2,0.5,1.6,0.9c0.4,0.4,0.8,0.8,1,1.3s0.4,1,0.4,1.6s-0.1,1.1-0.4,1.6c-0.2,0.5-0.6,0.9-1,1.3c-0.4,0.4-1,0.6-1.6,0.8
					c-0.6,0.2-1.4,0.3-2.2,0.3c-0.8,0-1.5-0.1-2.2-0.3s-1.2-0.5-1.6-0.8c-0.4-0.4-0.8-0.8-1-1.3s-0.4-1-0.4-1.6
					C119.3,25.2,119.4,24.7,119.7,24.2z M121.8,26.7c0.1,0.3,0.3,0.6,0.5,0.8c0.2,0.2,0.5,0.4,0.9,0.6c0.4,0.1,0.8,0.2,1.3,0.2
					s0.9-0.1,1.3-0.2s0.6-0.3,0.9-0.6c0.2-0.2,0.4-0.5,0.5-0.8s0.2-0.6,0.2-1c0-0.3-0.1-0.7-0.2-1s-0.3-0.6-0.5-0.8
					c-0.2-0.3-0.5-0.4-0.9-0.6c-0.4-0.1-0.8-0.2-1.3-0.2s-1,0.1-1.3,0.2c-0.4,0.2-0.6,0.4-0.9,0.6c-0.2,0.2-0.4,0.5-0.5,0.8
					s-0.2,0.6-0.2,1C121.6,26.1,121.7,26.4,121.8,26.7z"/>
				<path class="st0" d="M133.5,21.9l4.4,5.2l0,0v-5.2h2.2v7.7h-2.3l-4.4-5.2l0,0v5.2h-2.1v-7.7C131.3,21.9,133.5,21.9,133.5,21.9z"
					/>
			</g>
		</g>
	</g>
	<g>
		<rect y="0" class="st1" width="44.7" height="29.8"/>
		<rect y="0" class="st2" width="44.7" height="29.8"/>
		<g>
			<rect x="0.2" y="0.2" class="st3" width="29.6" height="19.7"/>
		</g>
		<path class="st4" d="M20.9,9.9c0,3.3-2.7,6-6,6s-6-2.7-6-6s2.7-6,6-6C18.2,4,20.9,6.6,20.9,9.9z"/>
	</g>
</g>
<g>
	<path class="st0" d="M3.6,35.5C3,37,2,38.3,0.8,39.2l-0.7-0.9c1.2-0.7,2-1.8,2.5-3.1L3.6,35.5z M7.7,43.9c-0.1-0.3-0.3-0.5-0.5-1
		c-1.8,0.3-6.3,0.6-6.6,0.6l-0.1-1c0.2,0,0.9,0,1.2-0.1c0.4-0.7,1.4-2.9,1.8-4.7L4.6,38c-0.5,1.6-1,2.7-1.8,4.3
		c2.1-0.1,2.6-0.1,3.9-0.3c-0.3-0.4-0.6-0.9-1.4-1.8l0.8-0.5c0.8,0.9,2,2.6,2.6,3.6L7.7,43.9z M8.3,39.3c-1.5-1.2-2.5-2.5-2.9-3.8
		l0.9-0.4C6.6,35.8,7,37,9,38.4L8.3,39.3z"/>
	<path class="st0" d="M10.4,40.2c-0.2,0.1-0.3,0.2-0.6,0.3l-0.5-0.9c1-0.6,2-1.4,2.6-2.2H9.5v-0.9h2.1c-0.2-0.4-0.6-0.9-0.7-1.1
		l1.1-0.3c0.4,0.5,0.6,1.2,0.7,1.3h2.2c0.3-0.4,0.5-0.8,0.7-1.3l1.1,0.2c-0.1,0.4-0.5,1.1-0.6,1.2h2.1v0.9h-2.4
		c0.5,1.1,2,1.9,2.6,2.1l-0.6,0.8c-0.2-0.1-0.3-0.2-0.5-0.3v2.7h0.8v0.9H9.6v-0.9h0.8C10.4,42.7,10.4,40.2,10.4,40.2z M16.6,39.6
		c-1.1-0.8-1.5-1.6-1.8-2.1H13c-0.2,0.3-0.7,1.1-1.8,2.1H16.6z M11.3,40.4v2.4h1.1v-2.4H11.3z M13.3,40.4v2.4h1.1v-2.4H13.3z
		 M15.2,40.4v2.4h1.1v-2.4H15.2z"/>
	<path class="st0" d="M20.3,42.3c-0.1,0.3-0.5,1.1-1,1.7l-0.7-0.6c0.4-0.4,0.7-1,0.9-1.4L20.3,42.3z M19,35.5h3.4v6.3H19V35.5z
		 M19.9,36.3v0.9h1.6v-0.9H19.9z M19.9,38.1V39h1.6v-0.9H19.9z M19.9,39.9v1h1.6v-1H19.9z M21.9,41.9c0.4,0.6,0.6,1,0.8,1.6
		l-0.9,0.3c-0.1-0.4-0.4-1.1-0.8-1.6L21.9,41.9z M22.5,41.5c1.6-1.2,2.6-2.8,3-3.6h-2.8V37h2.9v-1.7h1V37h1v0.9h-1v4.8
		c0,0.9-0.1,1.3-1,1.3H24l-0.2-1H25c0.6,0,0.6-0.2,0.6-0.6v-3.3c-0.6,1.2-1.5,2.3-2.5,3.2L22.5,41.5z"/>
	<path class="st0" d="M36.5,35.5v8.2h-8v-8.2H36.5z M29.4,36.4v6.4h6.1v-6.4H29.4z M34.2,41.7c0,0.7-0.6,0.8-0.9,0.8H32l-0.1-0.9H33
		c0.2,0,0.3-0.1,0.3-0.2v-2.7h-3.4v-0.8h3.4v-1h0.9v1h0.9v0.8h-0.9V41.7z M30.9,39c0.8,0.9,1,1.5,1.2,1.8l-0.8,0.5
		c-0.1-0.3-0.6-1.2-1.1-1.9L30.9,39z"/>
	<path class="st0" d="M39.8,40.7c-0.4,0.9-1.2,2.3-1.9,3.2L37.3,43c0.4-0.5,0.8-1,1.7-2.8L39.8,40.7z M37.8,37.8
		c0.7,0.3,1.2,0.6,1.6,0.9l-0.6,0.9c-0.5-0.4-1-0.7-1.5-0.9L37.8,37.8z M38.2,35.2c0.4,0.2,1.3,0.7,1.6,0.9L39.2,37
		c-0.4-0.3-0.5-0.4-1.5-1L38.2,35.2z M42.7,39.9c-0.4,1.1-0.7,1.8-1.3,2.8c1.1,0,1.5,0,3-0.2c-0.4-0.6-0.8-1.2-1-1.4l0.8-0.5
		c0.9,1,1.5,2.2,1.8,3L45,44c-0.1-0.3-0.2-0.5-0.3-0.7c-1.3,0.2-4,0.4-5,0.4l-0.1-0.9c0.1,0,0.6,0,0.7,0c0.6-1.1,0.9-1.9,1.2-2.9
		h-1.8V39h2.7v-1.6h-2.3v-0.9h2.3v-1.3h0.9v1.3h2.3v0.9h-2.3V39H46v0.9H42.7z"/>
	<path class="st0" d="M50.6,35.2h1.1v1.1c0,1.8,0.6,4.8,3.9,6.6l-0.6,1c-1.7-0.9-3.2-2.6-3.8-5c-0.6,2.2-2,4-3.8,5L46.6,43
		c1.4-0.7,2.5-1.7,3.2-3.1c0.5-1,0.8-2.3,0.8-3.5V35.2z"/>
	<path class="st0" d="M67,35.6v8.1h-7.2v-8.1H67z M60.8,39.1H66v-2.5h-5.1v2.5H60.8z M60.8,40.1v2.6H66v-2.6H60.8z"/>
	<path class="st0" d="M68.2,36.8h3.9v-1.6h1v1.6H77v0.9h-3.5c0.9,1.8,2.2,2.9,3.6,3.7l-0.5,1c-1-0.7-2.4-1.9-3.5-4v3H75v0.9h-1.9
		v1.6h-1v-1.6h-1.9v-0.9h1.9v-3c-0.9,1.7-2,3-3.5,4L68,41.5c1.7-1.1,2.7-2.2,3.6-3.9h-3.5L68.2,36.8L68.2,36.8z"/>
	<path class="st0" d="M77.9,38.8l-0.1-1l2-0.2v-2h1.1v1.9l4.8-0.4c-0.2,2-1,3.2-2.8,4l-0.6-0.8c1.5-0.6,1.9-1.4,2.1-2.1l-3.5,0.3
		v2.9c0,0.8,0.3,0.9,1,0.9h2c0.5,0,1.1,0,1.6-0.1v1c-0.3,0-0.7,0.1-1.5,0.1h-2.1c-1.8,0-2-0.9-2-1.8v-2.9L77.9,38.8z"/>
	<path class="st0" d="M94.9,39v1.1h-8V39H94.9z"/>
	<path class="st0" d="M97.7,40.9h-1.1v-5h1.1V40.9z M102.3,39.7c0,3.1-2.6,3.7-4.9,3.8l-0.4-1c2.5-0.1,4.2-0.5,4.2-2.8v-4h1.1
		C102.3,35.7,102.3,39.7,102.3,39.7z"/>
	<path class="st0" d="M106.9,38.4c-0.6-0.4-1.5-0.9-2.9-1.4l0.5-0.9c1.6,0.5,2.5,1,2.9,1.3L106.9,38.4z M104.2,42.2
		c3.7-0.3,5.6-2,6.6-5.6l0.9,0.7c-0.5,1.5-1.9,5.6-7.3,6.1L104.2,42.2z"/>
	<path class="st0" d="M112.9,42.7c3.7-0.7,5-2.8,5.5-5.4h-3c-0.6,0.9-1.3,1.7-2.3,2.4l-0.7-0.8c0.7-0.4,1.6-1.2,2.3-2.6h3.7l1,1.3
		c-0.5,2.4-1.7,5.2-6.1,6.1L112.9,42.7z M119.1,35.2c0.5,0.6,0.7,0.9,1.1,1.7l-0.6,0.4c-0.3-0.7-0.6-1.1-1-1.7L119.1,35.2z
		 M120.3,34.9c0.4,0.6,0.7,1,1,1.7l-0.6,0.4c-0.3-0.7-0.5-1.1-1-1.7L120.3,34.9z"/>
	<path class="st0" d="M121.6,38.8h1.8v2.8c0.1,0.3,0.1,0.6,0.7,0.9c0.4,0.2,0.9,0.3,1.2,0.3h5l-0.2,0.9h-4.7c-1.5,0-1.9-0.5-2.2-1
		c-0.3,0.4-0.9,0.9-1.3,1.3l-0.4-1.1c0.1-0.1,0.7-0.4,1-0.7v-2.4h-0.9C121.6,39.8,121.6,38.8,121.6,38.8z M122.4,35.3
		c0.3,0.3,1.1,1.1,1.4,1.7l-0.8,0.6c-0.4-0.6-0.6-1-1.3-1.7L122.4,35.3z M130.2,36.6h-2.6v0.5h2.3v3.4h-2.3V41h2.6v0.8h-2.6v0.7
		h-0.9v-0.7H124V41h2.7v-0.5h-2.3v-3.4h2.3v-0.5H124v-0.8h2.6v-0.6h0.9v0.6h2.6L130.2,36.6L130.2,36.6z M125.3,37.9v0.6h1.4v-0.6
		H125.3z M125.3,39.2v0.6h1.4v-0.6H125.3z M127.6,37.9v0.6h1.4v-0.6H127.6z M127.6,39.2v0.6h1.4v-0.6H127.6z"/>
	<path class="st0" d="M139.6,43.7h-8.7v-0.9h0.7v-2.1h7.3v2.1h0.8v0.9H139.6z M133.9,39.8c0.2-0.1,0.3-0.2,0.5-0.4H131v-3.9h3.4v3.8
		c0.5-0.5,0.9-1.2,0.9-2.1v-1.9h4v4.4c0,0.4-0.3,0.6-0.6,0.6h-1.2l-0.2-0.8h0.9c0.1,0,0.2-0.1,0.2-0.2v-0.5H136
		c-0.2,0.7-0.8,1.3-1.3,1.7L133.9,39.8z M132,36.3v0.8h1.6v-0.8H132z M132,37.8v0.9h1.6v-0.9H132z M132.5,41.5v1.3h1.2v-1.3H132.5z
		 M134.5,41.5v1.3h1.2v-1.3H134.5z M136.2,37.5c0,0.2,0,0.4-0.1,0.6h2.2v-0.6H136.2z M136.2,36.2v0.6h2.2v-0.6H136.2z M136.7,41.5
		v1.3h1.2v-1.3H136.7z"/>
</g>
</svg>
